<?xml version="1.0" encoding="utf-8"?>
<!-- Generator: Adobe Illustrator 16.0.5, SVG Export Plug-In . SVG Version: 6.00 Build 0)  -->
<!DOCTYPE svg PUBLIC "-//W3C//DTD SVG 1.1//EN" "http://www.w3.org/Graphics/SVG/1.1/DTD/svg11.dtd">
<svg version="1.1" id="Layer_1" xmlns="http://www.w3.org/2000/svg" xmlns:xlink="http://www.w3.org/1999/xlink" x="0px" y="0px"
	 width="153.724px" height="80.439px" viewBox="0 0 153.724 80.439" enable-background="new 0 0 153.724 80.439"
	 xml:space="preserve">
<g>
	<path fill="#E31837" d="M8.357,50.355c0,0-6.445-2.098-3.675-9.215c0,0-3.524-4.781,1.289-8.63c0,0-1.979-6.563,5.135-8.706
		c0,0,1.517-5.073,7.614-4.954c0,0,2.066-4.589,9.778-2.715c0,0,4.051-4.018,10.119-1.271c0,0,2.913-2.864,25.007,0.376
		c22.772,3.338,16.854,6.351,16.854,6.351s4.616,2.008,10.663,5.484c0,0-6.718,0.751-6.96,2.37c0,0,4.52,1.48,4.52,2.061
		l-0.986,4.74l-4.344-0.668c0,0-12.854,1.724-15.398,3.222c0,0-13.89,9.136-34.035-0.925c0,0-2.78-0.809-6.25,0.575
		c0,0-5.629,2.049-6.554-0.037c0,0-2.659,3.692-4.391,2.297c0,0-0.112,2.901-3.014,2.901c0,0-0.763,2.278-2.963,2.632
		C10.765,46.244,11.369,50.355,8.357,50.355z"/>
	<path fill="#E31837" d="M103.789,29.201c-1.058,0.589-2.25,1.481-3.74,2.493c0,0,5.268,5.093,12.835,9.037
		c5.561,2.898,12.849,5.175,19.714,4.354c0,0-6.785-2.625-14.556-8.235c-3.392-2.448-10.621-9.083-10.621-9.083
		S106.382,27.758,103.789,29.201z"/>
	<path fill="#E31837" d="M93.088,12.174c0,0,26.272-8.703,38.652,7.12c12.391,15.829,3.414,28.335,3.414,28.335
		s-12.758-24.479-27.118-19.755c-9.48,3.128-6.487,5.798-8.918,4.48c-0.282-0.154-1.724,0.413-1.724,0.413s-0.5-1.041-0.964-1.375
		c-0.637-0.429-1.448-1.026-2.346-1.649c-0.369-0.249-1.573-0.186-1.573-0.186s0.047-1.133-0.233-1.438
		c-0.753-0.824-1.968-1.19-3.097-1.921l-9.282-5.141L93.088,12.174z"/>
	<path fill="#E31837" d="M15.71,64.473c-0.62,1.779-1.985,2.852-3.347,3.425C10.538,68.669,8.661,68.5,8.661,68.5L7.618,51.508
		c0,0,5.912-14.718,19.232-15.069c0,0,0.42,1.934-0.276,3.796c-0.5,1.336-1.343,2.841-2.302,3.295
		c-0.575,0.27-1.541,0.53-2.305,0.043c0,0,0.603,2.184-1.477,4.25c-0.986,0.978-2.521,1.474-2.521,1.474s0.754,2.193,0.652,3.512
		c-0.081,1.045-0.158,2.196-0.782,3.208c-0.895,1.447-2,2.385-2,2.385s0.313,1.666,0.349,2.169
		C16.318,62.435,16.221,63.008,15.71,64.473z"/>
	<path fill="#E31837" d="M101.878,47.961c0,0,4.849-0.584,10.976-0.6c4.215-0.011,9.262,0.431,13.522,1.333
		c3.182,0.674,5.824,1.526,7.896,3.077c0,0-19.448-0.722-35.121,3.783C99.15,55.555,96.43,49.761,101.878,47.961z"/>
	<path fill="#E31837" d="M59.928,41.576c0,0-1.161,3.812,4.163,7.507c0,0,1.972-6.698,10.998-6.463
		C75.089,42.619,68.717,36.036,59.928,41.576z"/>
	<path fill="#E31837" d="M66.473,56.86c-0.194-0.259-0.726,0.168-0.726,0.168s-0.198-1.448-0.343-1.694
		c-0.546-0.873-1.02-1.849-1.321-2.858c-0.09-0.326-0.848-0.777-0.848-0.777s0.527-1.047,0.539-1.479
		c0.083-2.962,2.256-6.062,9.112-8.298c0,0,6.025,1.042,8.223,4.619c0,0-12.732,1.967-12.392,12.711
		C68.717,59.251,67.625,58.316,66.473,56.86z"/>
	<path fill="#E31837" d="M64.325,15.35c0,0,9.603-7.849,12.384-4.842l0.231,7.961L64.325,15.35z"/>
	<path fill="#E31837" d="M76.484,11.305c0,0,7.286-4.033,7.397-3.343c0,0-0.572,1.39,4.755,0.687c0,0-1.269,1.16,3.127,1.16
		c0,0,2.663,1.958,0.808,4.161c-0.736,0.873-1.709,2-3.017,3.128c-1.977,1.708-4.721,3.423-8.562,4.259l-4.398-2.075L76.484,11.305z
		"/>
	<path fill="#E31837" d="M37.58,39.266l-3.353,3.587c0,0-0.81,4.261,2.2,11.655c0,0,0.635,3.495,3.06,5.568c0,0-2.952-0.141-4.8-4.4
		c0,0-9.61-13.988,0-17.337L37.58,39.266z"/>
	<path fill="#E31837" d="M43.949,41.344c0,0,6.02,6.467,5.442,14.091l-0.611,3.938c0,0-0.668-2.201-1.469-3.249
		c0,0-2.662-5.075-2.21-8.189c0,0-7.521-3.131-3.465-7.285L43.949,41.344z"/>
	<path fill="#E31837" d="M81.769,21.965l5.464-0.438c0,0,0.303-0.03,0.408,0.065c0.101,0.096,0.064,0.334,0.064,0.334l0.51,3.355
		L81.769,21.965z"/>
	<path fill="#E31837" d="M54.624,45.252c0,0,3.237,5.78,3.127,7.282c1.384,4.303,1.003,3.401,1.384,7.395
		c-4.039-5.308-3.542-3.827-4.047-4.276c-0.927-0.81,0-3.466,0-3.466s-5.385-6.603-4.699-9.661c0,0,2.634,0.143,4.385,0.009
		C54.764,42.715,54.624,45.252,54.624,45.252z"/>
	<path fill="#8B0E04" d="M96.812,31.111c0,0,2.659-4.454,9.585-5.802c5.225-1.002,9.884,0.883,12.914,3.72
		c0,0-3.789-2.3-7.822-2.172c-3.306,0.181-9.389,2.409-11.483,5.476c0,0-0.979-0.427-1.144-0.441
		c-0.167-0.014-1.295,0.33-1.295,0.33L96.812,31.111z"/>
	<path opacity="0.5" fill="#FFFFFF" d="M133.406,27.724c0,0-3.424-14.877-23.943-15.77l-1.382,2.702
		C108.081,14.656,124.244,14.563,133.406,27.724z"/>
	<path fill="#8B0E04" d="M8.88,65.597c0.81-0.025,2.761,0.345,4.197-2.176c0.814-1.428,1.016-3.592,0.71-6.723
		c0,0,4.708-4.787,1.748-8.444c0,0,5.955-2.434,4.556-7.093c0,0,3.513-0.35,4.138-1.914c0.095-0.24,2.41-0.805,2.291-0.257
		c-0.41,1.887-1.723,5.794-4.874,4.114c0,0,0.251,1.472-0.455,3.027c-0.523,1.152-1.612,2.344-3.521,3.031
		c0,0,2.16,5.983-2.176,9.066c0,0,1.635,5.834-1.937,8.53c-1.004,0.757-2.558,1.293-4.52,1.375L8.88,65.597z"/>
	<path opacity="0.5" fill="#FFFFFF" d="M9.897,64.045L9.146,52.806l3.549,8.384C12.695,61.19,11.787,64.045,9.897,64.045z"/>
	<path fill="#8B0E04" d="M7.166,49.573c0,0,2.465-1.771,1.768-4.592c0,0,3.011-1.641,3.011-3.138c0,0,3.543-1.06,3.335-3.384
		c0,0,4.395-0.583,4.867-3.792c0,0,5.367,1.104,7.625-0.811c2.252-1.917,7.713-0.104,7.713-0.104l0.912,5.159l-2.603-1.294
		l-2.736,0.267l-4.12,0.622c0,0-2.683,0.946-4.097,0.842c-1.414-0.107-1.646-1.031-1.646-1.031l-0.431,0.442
		c0,0-1.453,1.855-2.229,2.135c-0.776,0.279-1.825,0.219-1.825,0.219s-0.327,1.347-0.844,1.758c-0.517,0.41-2.092,0.708-2.092,0.708
		s-0.044,0.481-0.461,1.055c-0.417,0.575-2.357,1.902-2.357,1.902l-0.074,1.718l-0.636,1.12l-1.527,1.144L7.166,49.573z"/>
	<path fill="#8B0E04" d="M35.586,33.763c0,0,11.522,5.015,25.193,3.775c2.845-0.259,5.807-1.39,8.78-2.097
		c2.357-0.56,5.013-1.23,6.824-1.597c4.917-0.988,7.442-0.939,9.218-0.733c2.375,0.275,2.381,0.789,2.381,0.789l-0.402,2.18
		l-4.184-0.874l-1.146,0.126l-11.346,2.055l-2.694,1.08l-3.743,1.779c0,0-13.952,5.646-28.071-1.336L35.586,33.763z"/>
	<path fill="#E31837" d="M35.653,56.93c0.668,1.197,1.127,1.628,2.285,2.107c0,0-1.028-1.615-1.629-3.274
		c-0.12-0.331-0.295-1.136-0.295-1.136l-0.529-1.343l-0.849-2.635l-0.485,3.388C34.151,54.039,34.844,55.477,35.653,56.93z"/>
	<path fill="#E31837" d="M46.274,52.522c-0.034,0.01,0.54,1.546,0.988,2.473c0.449,0.927,1.346,2.866,1.346,2.866
		s0.263-1.596,0.343-2.41c0.08-0.816,0.018-1.629,0.018-1.629L46.274,52.522z"/>
	<path fill="#8B0E04" d="M81.404,21.311l3.281-1.605c0,0-0.901-1.685-2.894-2.402c-1.083-0.392-2.731-0.384-4.802,0.218
		c0,0,1.856,0.545,3.165,1.322c0.776,0.459,1.31,0.79,1.31,1.625C81.464,20.799,81.404,21.311,81.404,21.311z"/>
	<path opacity="0.5" fill="#FFFFFF" d="M68.954,17.333c0,0-8.034-1.134-15.67-1.652c-5.318-0.36-10.374-0.33-12.679,0.208
		c0,0-1.616,2.482-1.802,4.356C38.803,20.246,46.034,16.116,68.954,17.333z"/>
	<path opacity="0.5" fill="#FFFFFF" d="M35.559,16.155c0,0-1.149-0.402-2.577-0.196c-0.96,0.138-2.188,0.737-2.746,1.228
		l-0.775,3.293c0,0,1.917-0.728,4.598-0.532C34.059,19.948,34.323,18.491,35.559,16.155z"/>
	<path opacity="0.5" fill="#FFFFFF" d="M25.255,21.392c0,0-0.78-0.058-1.924,0.288c-1.312,0.398-2.547,1.063-2.547,1.063
		l-0.136-3.466c0.729-0.728,1.4-1.135,2.217-1.382c1.391-0.42,2.848-0.099,3.147-0.071c0.043,0.009,0.069,0.009,0.069,0.009
		L25.255,21.392z"/>
	<path opacity="0.5" fill="#FFFFFF" d="M16.892,21.12c0,0-1.384,0.38-2.36,1.098c-0.668,0.492-1.431,1.473-1.593,1.958
		c-0.127,1.19,0.157,3.686,0.157,3.686s1.151-1.398,2.156-2.149c1.005-0.75,1.881-1.016,1.881-1.016L16.892,21.12z"/>
	<path opacity="0.5" fill="#FFFFFF" d="M9.731,26.733c0,0-2.617,1.553-2.515,4.377l0.687,2.377c0,0,0.74-1.223,1.387-1.951
		c0.557-0.625,1.066-0.997,1.066-0.997S9.728,28.832,9.731,26.733z"/>
	<path opacity="0.5" fill="#FFFFFF" d="M5.552,36.253c0,0-1.395,1.136-0.183,3.367l1.401-1.413L5.552,36.253z"/>
	<path opacity="0.5" fill="#FFFFFF" d="M5.552,44.277c0,0-0.355,1.338,0.546,2.651l0.692-1.658L5.552,44.277z"/>
	<path opacity="0.5" fill="#FFFFFF" d="M79.302,12.093l3.573-1.882c0,0,3.785,1.047,5.141,1.047L79.302,12.093z"/>
	<path fill="#E31837" d="M55.103,53.978l3.076,1.395c0,0,0.139,0.575,0.228,1.364c0.089,0.789,0.154,1.711,0.154,1.711l-2.729-2.98
		l-0.441-0.13c0,0-0.248-0.172-0.278-0.736C55.093,54.23,55.103,53.978,55.103,53.978z"/>
	<path fill="#8B0E04" d="M110.907,52.664c-4.718,0.653-9.684,1.894-9.684,1.894s-0.293-0.884-0.33-1.621
		c-0.036-0.736,0.199-1.404,0.199-1.404l17.198-0.916l2.718,0.991C121.009,51.608,115.627,52.01,110.907,52.664z"/>
	<path fill="#8B0E04" d="M71.203,16.101c-3.122-0.642-5.793-1.054-5.793-1.054c2.39-0.596,3.834-0.622,5.376-0.638
		c1.542-0.015,5.304,0.93,5.304,0.93l0.012,1.917C76.101,17.255,74.322,16.742,71.203,16.101z"/>
	<path fill="#8B0E04" d="M103.011,30.603c0,0-0.494,0.308-0.931,0.666c-0.437,0.357-0.862,0.888-0.862,0.888
		s5.166,4.526,10.12,7.281c6.304,3.507,9.119,3.956,11.158,4.489c4.343,1.136,8.186,0.836,8.186,0.836s-7.524-1.424-11.107-2.971
		c-3.394-1.465-8.44-4.159-10.989-6.083C106.036,33.783,103.011,30.603,103.011,30.603z"/>
	<path fill="#E31837" d="M88.039,24.814l-0.426-2.825c0,0,13.568-2.843,32.553-4.593c9.12-0.84,25.27-8.696,25.27-8.696
		s-8.383,8.795-31.104,11.883c-12.881,1.75-25.686,4.094-25.686,4.094L88.039,24.814z"/>
	<path d="M60.498,45.157c-0.018,0-0.027,0-0.027,0s0.782,1.781,1.563,2.51c0.902,0.843,1.964,1.097,1.964,1.097
		c0,0,0.793-1.672,2.203-2.965C66.906,45.152,60.885,45.16,60.498,45.157z"/>
	<path d="M64.032,52.792l1.763,3.508l0.884,0.867l0.381-0.989c-0.464-0.659-0.374-2.543-0.104-3.102
		C67.702,51.535,64.054,52.782,64.032,52.792z"/>
	<path fill="#8B0E04" d="M60.805,44.932c0,0,2.335-0.043,3.637-0.282c1.301-0.238,3.138-0.828,3.138-0.828s-1.506,1.506-2.07,2.04
		c-0.562,0.532-1.875,2.518-1.875,2.518s-1.04-0.876-1.49-1.409C61.696,46.437,60.805,44.932,60.805,44.932z"/>
	<path fill="#8B0E04" d="M64.201,51.95c0,0,1.642-1.786,3.897-2.825c2.255-1.04,5.687-1.542,5.687-1.542s-4.328,1.785-5.903,3.497
		c-1.577,1.712-1.521,2.049-1.605,2.61c-0.083,0.562,0.141,2.696,0.141,2.696s-0.647-1.208-0.957-1.827
		C65.152,53.943,64.201,51.95,64.201,51.95z"/>
	<path fill="#FFFFFF" d="M132.767,44.624c-0.006-0.002-0.012-0.005-0.018-0.006C132.771,44.624,132.758,44.621,132.767,44.624
		L132.767,44.624z"/>
	<path fill="#E31837" d="M88.186,23.356c12.512-3.051,34.209-3.328,49.806-9.809l-0.486,0.763l-9.196,3.385l-15.897,3.419
		L88.359,24.43L88.186,23.356z"/>
	<path fill="#E31837" d="M98.98,39.838c-6.682-3.712-10.859-4.144-10.859-4.144l0.298-3.222c0,0,3.073,0.528,8.913,3.598
		c5.13,2.698,12.093,7.532,18.53,10.876c5.309,2.759,12.364,4.271,18.156,5.015c10.124,1.3,13.124,0.83,13.124,0.83
		s-2.727,2.475-13.776,1.071c-6.075-0.771-13.868-2.253-22.119-6.87C105.36,43.699,102.199,41.626,98.98,39.838z"/>
	<path fill="#E31837" d="M102.773,46.509c-0.257-0.241-1.58-1.352-1.58-1.352s-1.135,0.662-1.647,0.58
		c-0.632-0.115-0.486-0.132-1.276-0.219c-0.414-0.042-1.311-0.914-1.311-0.914s-0.587,0.705-0.899,0.769
		c-0.768,0.156-1.61-0.059-2.466-0.065c-0.302-0.001-0.898-0.812-0.898-0.812s-0.855,0.829-1.279,0.841
		c-0.761,0.02-1.543,0.044-2.333,0.085c-0.577,0.034-1.742-0.701-1.742-0.701s-0.9,0.889-1.329,0.929
		c-0.408,0.045-0.835,0.073-1.245,0.133c-0.347,0.033-1.026-0.71-1.026-0.71s-0.489,0.889-0.732,0.916
		c-10.133,1.373-19.417,4.864-15.242,11.42c0,0,9.341,21.992,40.265,18.871c27.432-2.767,29.915-22.149,29.717-25.059
		c0,0-17.461,11.657-36.393,4.468c0,0-2.755-3.596,1.68-7.962C103.517,47.266,103.284,46.989,102.773,46.509z"/>
	<path fill="#8B0E04" d="M77.083,68.254c-3.211-2.499-6.719-6.508-8.642-10.275c-0.041-0.078-0.462-0.992-0.507-1.064
		c-1.169-1.85-0.702-3.268-0.702-3.268s13.121,18.446,36.262,18.446c25.106,0,33.808-20.08,33.808-20.08s-0.237,2.52-0.678,3.884
		c-1.093,3.378-1.96,4.829-1.96,4.829s-2.332,5.481-9.439,9.851c-3.688,2.266-8.665,4.228-15.261,5.095
		c-3.295,0.435-6.913,0.654-11.145,0.375C89.086,75.405,82.003,72.089,77.083,68.254z"/>
	<path opacity="0.5" fill="#FFFFFF" d="M97.877,47.959c-0.369-0.077-7.164-0.982-18.12,0.986c0,0,12.601,1.45,16.358,2.94
		C96.187,50.553,97.146,48.633,97.877,47.959z"/>
	<path fill="#E31837" d="M88.498,34.516c14.972,3.605,25.163,16.429,44.849,18.751l-1.282,0.693l-9.254-2.218l-7.14-2.807
		l-9.982-5.234l-9.6-5.303l-7.903-2.772L88.498,34.516z"/>
	<path d="M153.724,51.978c-5.886,0.353-11.003,0.307-15.516-0.045c0.039-0.994-0.034-1.592-0.034-1.592s-0.772,0.563-2.233,1.383
		c-0.355-0.038-0.708-0.077-1.055-0.119c-3.72-3.013-10.769-4.196-17.343-4.564c-10.809-4.73-17.09-11.474-28.48-14.785
		c0.073-0.399,0.121-0.664,0.122-0.665l0.008-0.043v-0.044c-0.037-0.401-0.237-0.505-0.385-0.643
		c-0.553-0.42-1.62-0.845-2.615-1.227c-0.465-0.175-0.905-0.332-1.239-0.448c0.148-0.113,0.354-0.238,0.618-0.348
		c0.919-0.416,2.345-0.747,3.519-0.959c0.681-0.124,1.278-0.21,1.661-0.262c0.472,0.255,0.879,0.507,1.161,0.825
		c0.017,0.032,0.067,0.192,0.083,0.367c0.024,0.198,0.031,0.417,0.029,0.561c0.001,0.106-0.002,0.167-0.001,0.167l-0.021,0.538
		l0.537-0.03c0.001,0,0.12-0.006,0.298-0.005c0.181-0.001,0.416,0.006,0.618,0.031c0.102,0.011,0.193,0.028,0.261,0.045
		c0.033,0.009,0.061,0.018,0.078,0.024c0.017,0.006,0.018,0.009,0.018,0.008c0.886,0.615,1.693,1.211,2.346,1.649
		c0.104,0.065,0.347,0.381,0.51,0.659c0.169,0.281,0.284,0.522,0.285,0.522l0.197,0.411l0.426-0.167c0,0,0.268-0.105,0.589-0.21
		c0.289-0.099,0.654-0.188,0.782-0.195c0.421,0.221,0.698,0.359,1.06,0.372c0.217,0.004,0.446-0.092,0.587-0.214
		c0.024-0.021,0.043-0.043,0.064-0.063c1.851,1.63,6.263,5.262,11.999,8.253c4.834,2.517,10.952,4.576,17.031,4.578
		c0.992,0,1.983-0.056,2.968-0.172l0.695-0.083l-0.057-0.112c0.397,0.652,0.718,1.202,0.953,1.619
		c0.312,0.55,0.472,0.858,0.472,0.859l0.368,0.708l0.467-0.649c0.032-0.047,3.231-4.51,3.234-11.518
		c0.001-4.835-1.539-10.867-6.66-17.406c-0.377-0.481-1.159-1.238-1.413-1.479c7.105-2.338,13.362-5.708,17.349-10.856
		c-7.433,4.159-13.885,6.667-19.962,8.319l-0.114-0.08c-5.845-4.501-13.262-5.601-19.048-5.6c-7.21,0.001-13.401,1.638-15.36,2.214
		c-0.392-1.295-1.506-2.06-1.526-2.096l-0.13-0.095h-0.161c-1.365,0.001-2.154-0.12-2.539-0.25
		c-0.101-0.033-0.171-0.066-0.218-0.093l1.114-1.016l-1.55,0.203c-1.059,0.141-1.875,0.194-2.493,0.194
		c-0.954,0.003-1.441-0.138-1.623-0.239c-0.041-0.023-0.068-0.042-0.083-0.055l0.018-0.042l-0.024-0.141
		c-0.021-0.174-0.173-0.357-0.309-0.415c-0.135-0.065-0.238-0.07-0.328-0.072c-0.255,0.005-0.48,0.075-0.777,0.174
		c-1.433,0.499-4.272,1.993-5.754,2.792l-0.002-0.049l-0.125-0.135c-0.559-0.607-1.346-0.848-2.162-0.844
		c-2.131,0.018-4.781,1.448-6.987,2.842c-1.805,1.15-3.274,2.294-3.746,2.669c-0.194-0.029-0.385-0.058-0.584-0.087
		c-8.104-1.178-13.619-1.556-17.371-1.556c-5.182,0.009-7.015,0.707-7.662,1.103c-1.506-0.641-2.905-0.889-4.151-0.888
		c-3.224,0.006-5.39,1.625-6.045,2.185c-1.238-0.283-2.339-0.403-3.316-0.403c-4.275-0.007-6.109,2.327-6.618,3.163
		c-3.055,0.018-5.04,1.332-6.206,2.642c-0.881,0.985-1.322,1.959-1.496,2.409c-2.238,0.714-3.634,1.9-4.444,3.197
		c-0.839,1.341-1.054,2.77-1.055,3.89c0.001,0.808,0.112,1.463,0.192,1.832c-1.869,1.573-2.483,3.38-2.474,4.931
		c0.007,1.889,0.838,3.391,1.188,3.945c-0.444,1.209-0.635,2.294-0.635,3.262c-0.004,2.404,1.193,4.03,2.36,4.999
		c0.612,0.511,1.215,0.855,1.657,1.07c-0.234,0.495-0.35,0.785-0.354,0.793L7.12,51.429l1.076,17.522l0.42,0.039
		c0.011,0.001,0.2,0.017,0.509,0.019c0.71-0.002,2.063-0.083,3.429-0.659c1.45-0.607,2.943-1.774,3.62-3.714v0
		c0.381-1.092,0.56-1.791,0.556-2.838c0-0.365-0.019-0.772-0.053-1.26c-0.032-0.435-0.215-1.464-0.306-1.955
		c0.377-0.356,1.185-1.178,1.885-2.307c0.624-1.016,0.865-2.22,0.865-3.726c-0.005-1.037-0.345-2.297-0.544-2.957
		c0.557-0.228,1.513-0.688,2.259-1.42c1.42-1.408,1.706-2.918,1.703-3.829c0-0.013,0-0.026,0-0.04
		c0.144,0.024,0.285,0.034,0.422,0.034c0.596-0.002,1.129-0.182,1.518-0.362c1.211-0.608,2.015-2.18,2.555-3.568
		c0.169-0.454,0.275-0.907,0.341-1.336c0.293-0.093,0.473-0.159,0.479-0.16c1.547-0.617,2.937-0.781,3.988-0.781
		c0.613,0,1.111,0.057,1.452,0.111c0.094,0.015,0.174,0.03,0.244,0.044c-2.646,1.29-3.641,3.622-3.616,6.037
		c0.023,5.12,3.931,10.979,4.326,11.581c1.921,4.424,5.111,4.675,5.214,4.664l1.433,0.069l-1.09-0.933
		c-1.125-0.959-1.861-2.284-2.304-3.373c-0.221-0.544-0.37-1.027-0.464-1.371c-0.093-0.344-0.127-0.537-0.128-0.538l-0.009-0.05
		l-0.019-0.048c-1.933-4.749-2.262-8.166-2.263-9.954c0-0.48,0.024-0.845,0.047-1.084c0.008-0.085,0.018-0.154,0.024-0.208
		l2.849-3.048c1.043,0.417,2.067,0.782,3.07,1.104c-0.452,0.674-0.667,1.352-0.665,2.005c0.021,1.716,1.333,2.988,2.536,3.866
		c0.832,0.6,1.651,1.021,2.094,1.23c-0.012,0.152-0.016,0.307-0.016,0.463c0.018,3.322,2.311,7.617,2.318,7.653l0.019,0.037
		l0.025,0.033c0.345,0.447,0.711,1.238,0.968,1.898c0.26,0.663,0.42,1.194,0.421,1.194l0.625,2.063l0.944-6.088l0.002-0.019
		c0.027-0.361,0.041-0.721,0.041-1.077c-0.014-5.307-2.87-9.852-4.503-12.023c1.538,0.299,3.015,0.495,4.425,0.604
		c-0.001,0.045-0.007,0.09-0.007,0.136c0.019,1.844,1.256,4.114,2.458,6.016c0.94,1.473,1.875,2.69,2.246,3.16
		c-0.126,0.419-0.353,1.274-0.356,2.106c0.005,0.569,0.094,1.187,0.58,1.628c0.167,0.189,0.542,0.247,0.56,0.231h0.003
		c0,0,0.049,0.016,0.172,0.116c0.374,0.296,1.27,1.257,3.244,3.858l1.045,1.373l-0.165-1.718c-0.19-1.984-0.188-2.743-0.319-3.608
		c-0.132-0.856-0.388-1.716-1.06-3.807c0-0.003,0-0.007,0-0.01c-0.008-0.549-0.224-1.207-0.523-1.987
		c-0.796-2.035-2.264-4.723-2.601-5.331c0.022-0.394,0.084-1.514,0.119-2.143c1.487-0.108,2.866-0.301,4.125-0.546l-0.036,0.07
		c-0.01,1.439,0.609,4.114,4.063,6.666c-0.063,0.341-0.1,0.682-0.109,1.02c0.01,0.054-0.108,0.436-0.236,0.725
		c-0.126,0.298-0.25,0.547-0.25,0.548l-0.206,0.408l0.394,0.234c0,0,0.036,0.022,0.102,0.066c0.097,0.062,0.247,0.168,0.367,0.271
		c0.059,0.051,0.109,0.103,0.138,0.138c0.011,0.013,0.02,0.023,0.023,0.03c0.32,1.059,0.807,2.061,1.365,2.956
		c0.029,0.078,0.123,0.484,0.173,0.811c0.062,0.37,0.107,0.701,0.108,0.702l0.117,0.861l0.678-0.545c0,0,0.006-0.005,0.03-0.022
		c0.028-0.021,0.074-0.051,0.119-0.076c1.05,1.3,2.014,2.156,2.169,2.292c1.11,1.872,3.154,4.812,6.42,7.757
		c5.389,4.863,14.124,9.716,27.375,9.713c1.878,0,3.85-0.098,5.915-0.306c13.377-1.343,20.964-6.645,25.156-12.124
		c2.706-3.538,4.005-7.099,4.586-9.754c0.002-0.011,0.004-0.021,0.006-0.032C142.708,54.816,147.975,53.967,153.724,51.978z
		 M146.659,53.066c-2.699,0.573-6.278,0.77-8.641,0.795c0.054-0.347,0.094-0.672,0.124-0.979
		C140.401,53.064,143.577,53.122,146.659,53.066z M124.701,48.807c3.013,0.517,5.784,1.323,7.86,2.438
		c-0.11-0.002-0.219-0.002-0.328-0.003c-4.493-0.701-8.307-1.739-11.675-2.985C121.959,48.395,123.354,48.573,124.701,48.807z
		 M88.881,33.203c16.232,4.713,22.216,16.375,45.589,19.305c-0.652,0.332-1.388,0.682-2.202,1.042
		c-18.517-2.221-31.192-15.489-43.801-18.182L88.881,33.203z M120.499,51.598c-11.867,0.847-19.211,2.876-19.211,2.876
		c-0.153-0.423-0.286-0.971-0.285-1.615c0.004-1.203,0.441-2.761,2.14-4.536c0.51-0.049,5.45-0.437,9.153-0.439
		C114.909,49.236,117.632,50.514,120.499,51.598z M122.668,52.37c2.489,0.83,5.086,1.496,7.81,1.931
		c-4.14,1.641-9.812,3.242-16.19,3.239c-3.941,0-8.15-0.61-12.442-2.194C101.846,55.346,108.814,53.444,122.668,52.37z
		 M88.278,36.358l0.006-0.031c7.048,1.448,14.105,6.24,22.183,10.591c-2.909,0.053-5.307,0.21-6.679,0.351
		c-0.002-0.273-0.12-0.497-0.244-0.659c-0.126-0.166-0.273-0.308-0.434-0.46l-0.001-0.001c-0.287-0.267-1.594-1.363-1.6-1.368
		l-0.265-0.223l-0.298,0.174c0,0-0.232,0.135-0.528,0.27c-0.289,0.14-0.667,0.258-0.776,0.25c-0.006,0-0.013,0-0.02-0.002
		c-0.565-0.101-0.495-0.134-1.295-0.221v0c-0.066-0.01-0.381-0.211-0.606-0.405c-0.235-0.194-0.418-0.373-0.419-0.373l-0.381-0.369
		l-0.339,0.408c0,0-0.134,0.161-0.3,0.325c-0.083,0.083-0.173,0.164-0.246,0.219c-0.037,0.027-0.067,0.047-0.085,0.056
		c-0.002,0.002-0.004,0.003-0.006,0.004c-0.157,0.03-0.327,0.042-0.51,0.042c-0.51,0.002-1.111-0.107-1.773-0.12
		c-0.063-0.044-0.219-0.186-0.328-0.316c-0.138-0.157-0.24-0.297-0.241-0.297l-0.333-0.452l-0.404,0.391
		c0,0.001-0.197,0.191-0.441,0.382c-0.121,0.096-0.252,0.188-0.359,0.249c-0.054,0.03-0.101,0.052-0.131,0.064
		c-0.016,0.005-0.025,0.008-0.029,0.009c-0.759,0.019-1.542,0.043-2.335,0.085c0,0-0.006,0-0.014,0
		c-0.114,0.012-0.535-0.131-0.853-0.299c-0.328-0.163-0.586-0.328-0.587-0.327l-0.33-0.208l-0.278,0.273
		c0,0.001-0.211,0.208-0.469,0.418c-0.128,0.105-0.267,0.209-0.383,0.28c-0.057,0.036-0.109,0.062-0.145,0.077
		c-0.018,0.008-0.031,0.012-0.037,0.014v0c-0.381,0.042-0.79,0.069-1.202,0.126c-0.003-0.001-0.008-0.004-0.013-0.007
		c-0.092-0.041-0.276-0.183-0.41-0.309c-0.137-0.126-0.232-0.23-0.232-0.23l-0.462-0.506l-0.331,0.601c0,0-0.113,0.206-0.25,0.409
		c-0.068,0.102-0.144,0.2-0.195,0.256c-0.004,0.005-0.009,0.009-0.013,0.013c-0.564,0.078-1.127,0.162-1.685,0.252
		c-1.238-1.636-3.156-2.672-4.815-3.334c-0.425-0.169-0.832-0.312-1.209-0.433c-0.783-0.699-3.091-2.512-6.455-3.004
		c0.65-0.27,1.682-0.574,2.875-0.854c2.321-0.554,5.294-1.075,7.681-1.456c2.092-0.333,3.73-0.559,4.108-0.611
		c0.524,0.106,3.422,0.694,3.861,0.776c0.095,0.018,0.186,0.027,0.278,0.027c0.242,0.015,0.551-0.116,0.687-0.331
		C88.227,36.479,88.255,36.417,88.278,36.358z M85.168,27.942c-0.695,0.332-1.323,0.685-1.474,1.43l-0.024,0.161
		c-0.925-0.093-1.825-0.229-2.545-0.429c-0.764-0.206-1.306-0.513-1.458-0.791c-0.052-0.089-0.075-0.169-0.076-0.268
		c-0.01-0.254,0.221-0.718,0.921-1.321l6.403,0.629C86.292,27.518,85.686,27.711,85.168,27.942z M129.688,44.762
		c-5.855,0.002-11.85-2.002-16.577-4.467c-3.749-1.954-6.935-4.196-9.18-5.949c-1.123-0.876-2.488-2.057-2.56-2.118
		c0.941-1.157,3.743-3.052,6.187-3.672c1.652,1.503,7.278,6.583,10.198,8.692c3.909,2.823,7.569,4.893,10.254,6.259
		c1.003,0.511,1.87,0.923,2.563,1.24C130.279,44.757,129.983,44.762,129.688,44.762z M132.767,44.624
		c-0.006-0.002-0.012-0.005-0.018-0.006C132.771,44.624,132.758,44.621,132.767,44.624L132.767,44.624z M132.768,44.624
		L132.768,44.624c-0.209-0.081-6.856-2.699-14.438-8.172c-1.665-1.201-4.321-3.471-6.546-5.431
		c-1.278-1.125-2.414-2.148-3.152-2.817c1.063-0.305,2.113-0.445,3.151-0.446c6.104-0.019,11.886,4.947,16.094,10.005
		c2.09,2.504,3.793,5.011,4.978,6.902C132.827,44.649,132.798,44.635,132.768,44.624z M131.354,19.597
		c4.996,6.388,6.448,12.173,6.451,16.8c0,3.351-0.769,6.097-1.535,8.003c-0.383,0.952-0.766,1.694-1.051,2.195
		c-0.013,0.021-0.024,0.042-0.036,0.062c-0.899-1.603-3.242-5.557-6.552-9.523c-4.287-5.123-10.192-10.356-16.848-10.356
		c-4.708,0-9.711,2.71-11.799,5.428c-0.067-0.015-0.286-0.09-0.631-0.283c-0.16-0.082-0.274-0.083-0.381-0.086
		c-0.365,0.007-0.751,0.131-1.113,0.244c-0.081,0.027-0.16,0.053-0.23,0.078c-0.038-0.066-0.078-0.136-0.122-0.208
		c-0.203-0.326-0.442-0.698-0.789-0.957c-0.636-0.427-1.448-1.026-2.354-1.654c-0.274-0.173-0.526-0.205-0.794-0.243
		c-0.198-0.024-0.397-0.033-0.571-0.037c-0.006-0.131-0.018-0.274-0.037-0.42c-0.049-0.282-0.07-0.558-0.314-0.85l1.717,0.06
		c0,0-3.704-1.882-5.245-2.683c9.414-2.371,26.566-2.933,40.673-7.359C130.338,18.367,130.854,18.957,131.354,19.597z
		 M88.536,24.316l-0.24-1.738c21.537-4.805,35.046-2.238,55.779-12.894C129.912,21.085,101.593,21.049,88.536,24.316z
		 M93.712,12.494c0.197-0.059,0.454-0.133,0.768-0.22c2.405-0.664,8.045-1.997,14.461-1.997c5.96,0.001,12.55,1.147,17.897,4.985
		l0.041,0.036c-12.537,3.205-23.634,2.936-38.733,6.317l-0.031-0.195c-0.03-0.05-0.085-0.129-0.137-0.185
		c-0.316-0.244-0.497-0.185-0.638-0.205c-0.087,0-0.146,0.005-0.159,0.007l-4.397,0.353c3.067-0.94,5.371-2.435,7.091-3.922
		c1.338-1.155,2.331-2.306,3.07-3.182C93.446,13.698,93.679,13.075,93.712,12.494z M87.584,24.388l-4.057-2.07l3.695-0.297
		L87.584,24.388z M79.93,10.031c0.835-0.426,1.702-0.851,2.417-1.165c0.356-0.157,0.675-0.287,0.926-0.373
		c0.063-0.023,0.124-0.042,0.179-0.059c0.095,0.207,0.273,0.416,0.54,0.547c0.427,0.226,1.047,0.354,2.088,0.357
		c0.525,0,1.158-0.036,1.925-0.118c0.042,0.145,0.124,0.289,0.238,0.398c0.509,0.459,1.341,0.65,3.349,0.679
		c0.331,0.277,1.172,1.148,1.146,2.044c-0.003,0.39-0.125,0.815-0.541,1.313c-0.732,0.866-1.685,1.969-2.962,3.071
		c-1.796,1.55-4.224,3.098-7.57,3.964c0.001-0.019,0.005-0.035,0.006-0.054c0-0.484-0.279-0.966-0.82-1.402
		c-0.685-0.545-1.84-1.131-3.79-1.749l-0.081-5.893C77.484,11.316,78.669,10.673,79.93,10.031z M65.736,14.879
		c1.029-0.77,2.666-1.926,4.384-2.88c1.712-0.958,3.528-1.696,4.788-1.687c0.435,0.002,0.785,0.079,1.069,0.237
		c0,0,0.076,5.177,0.095,6.64c-2.39-0.68-5.77-1.397-10.557-2.146C65.587,14.99,65.657,14.937,65.736,14.879z M11.557,24.197
		c0.013-0.152,0.025-0.241,0.031-0.283c0.009-0.028,0.025-0.074,0.053-0.146c0.165-0.43,0.672-1.551,1.734-2.545
		c1.025-0.956,2.545-1.808,4.854-1.876c0.012,2.069,0.202,10.271,2.37,18.957c-0.044,0.058-0.097,0.124-0.165,0.206
		c-0.289,0.351-0.766,0.882-1.294,1.307c-0.526,0.432-1.108,0.728-1.517,0.718c-0.191-0.002-0.353-0.05-0.527-0.174
		c-4.955-7.064-5.577-12.75-5.579-15.19C11.518,24.743,11.538,24.415,11.557,24.197z M7.114,27.125
		c0.635-1.006,1.674-1.956,3.438-2.616c-0.01,0.188-0.016,0.407-0.016,0.66c-0.001,2.597,0.674,8.474,5.701,15.672
		c-0.035,0.266-0.153,0.833-0.484,1.313c-0.345,0.488-0.854,0.905-1.863,0.956c-3.007-2.403-4.867-5.069-5.974-7.143
		c-0.562-1.053-0.932-1.953-1.159-2.587c-0.104-0.29-0.177-0.52-0.227-0.688l0.006-0.004l-0.095-0.32c0,0-0.011-0.038-0.032-0.125
		c-0.065-0.264-0.199-0.921-0.199-1.751C6.21,29.495,6.404,28.258,7.114,27.125z M3.928,37.256c0.007-1.211,0.401-2.557,1.791-3.875
		c0.595,1.784,2.516,6.402,7.413,10.378c-0.118,0.245-0.32,0.602-0.618,0.945c-0.393,0.449-0.931,0.861-1.673,1.021
		c-1.954-1.036-3.388-2.24-4.333-3.191c-0.486-0.488-0.843-0.908-1.076-1.205c-0.082-0.104-0.143-0.186-0.195-0.257l0.001-0.005
		L5.079,40.85c0,0-0.012-0.016-0.042-0.06C4.822,40.477,3.922,38.999,3.928,37.256z M6.11,48.366
		c-0.87-0.863-1.626-2.092-1.629-3.903c0-0.676,0.108-1.438,0.366-2.295c0.84,1.016,2.618,2.864,5.457,4.387
		c0.009,0.13,0.02,0.304,0.019,0.506c0.003,0.557-0.08,1.318-0.368,1.873c-0.295,0.534-0.669,0.893-1.521,0.928
		c-0.023-0.009-0.05-0.019-0.083-0.032C7.971,49.678,6.98,49.223,6.11,48.366z M26.114,40.063c-0.46,1.284-1.343,2.724-2.052,3.024
		c-0.291,0.138-0.712,0.27-1.1,0.268c-0.268,0-0.512-0.057-0.731-0.196l-1.077-0.686l0.34,1.231c0,0,0,0.002,0.006,0.026
		c0.017,0.078,0.057,0.298,0.057,0.612c-0.004,0.725-0.202,1.923-1.412,3.132c-0.432,0.429-1.021,0.778-1.5,1.01
		c-0.238,0.115-0.45,0.202-0.599,0.261c-0.149,0.058-0.229,0.083-0.229,0.083l-0.477,0.154l0.163,0.473
		c0,0.001,0.159,0.462,0.32,1.09c0.161,0.625,0.316,1.417,0.315,2.002c0,0.907-0.185,2.353-0.719,3.209
		c-0.425,0.688-0.904,1.26-1.277,1.658c-0.186,0.199-0.345,0.354-0.455,0.459c-0.111,0.104-0.168,0.151-0.168,0.152l-0.217,0.185
		l0.052,0.281c0,0.001,0.078,0.414,0.16,0.888c0.082,0.471,0.169,1.022,0.181,1.224c0.034,0.476,0.051,0.861,0.051,1.192
		c-0.003,0.941-0.128,1.432-0.502,2.515l0,0c-0.564,1.617-1.8,2.594-3.073,3.133c-1.177,0.499-2.417,0.582-3.047,0.58
		c0,0-0.001,0-0.003,0L8.115,51.592c0.042-0.1,0.117-0.271,0.228-0.51c0.034-0.073,0.073-0.154,0.113-0.238
		c1.189-0.02,1.995-0.688,2.373-1.463c0.403-0.793,0.475-1.68,0.478-2.321c0-0.161-0.005-0.307-0.013-0.431
		c1.017-0.291,1.724-0.946,2.171-1.538c0.292-0.386,0.484-0.75,0.597-1c1.426-0.099,2.292-0.917,2.695-1.698
		c0.181-0.339,0.294-0.669,0.363-0.945c0.167,0.047,0.338,0.069,0.505,0.068c1.079-0.022,1.991-0.768,2.707-1.445
		c0.318-0.308,0.59-0.613,0.795-0.857c0.191,0.169,0.414,0.298,0.647,0.388c0.46,0.178,0.973,0.237,1.504,0.238
		c1.03-0.003,2.158-0.231,3.037-0.46C26.262,39.607,26.198,39.837,26.114,40.063z M27.504,37.993
		c-0.006,0.002-0.595,0.215-1.42,0.431c-0.836,0.221-1.913,0.436-2.807,0.435c-0.454,0.001-0.858-0.057-1.146-0.17
		c-0.281-0.114-0.438-0.252-0.537-0.452c-2.273-8.992-2.386-17.571-2.384-19.128c0-0.055,0-0.097,0-0.134
		c0.263-0.464,1.691-2.789,5.834-2.797c0.818,0,1.745,0.093,2.792,0.313c-0.493,1.371-1.691,5.218-1.693,10.274
		c0,3.274,0.507,7.054,2.039,10.983C27.96,37.82,27.734,37.902,27.504,37.993z M31.843,37.147c-0.763,0-1.689,0.083-2.711,0.329
		c-1.507-3.83-2.005-7.516-2.005-10.713c0-3.072,0.459-5.691,0.917-7.537c0.229-0.923,0.458-1.653,0.629-2.149
		c0.111-0.325,0.195-0.543,0.241-0.657c0.006-0.006,0.007-0.008,0.015-0.014c0.433-0.387,2.461-2.016,5.479-2.011
		c1.028,0,2.176,0.186,3.435,0.675c-0.96,1.379-3.264,5.489-3.262,13.091c0,2.84,0.328,6.173,1.157,10.025
		c-0.523-0.239-1.048-0.486-1.58-0.752l-0.04-0.02l-0.043-0.013C34.041,37.393,33.19,37.147,31.843,37.147z M30.906,44.322
		c0.009-0.728,0.097-1.417,0.293-2.053l2.528,0.602c-0.032,0.21-0.091,0.715-0.091,1.498c0,0.74,0.055,1.73,0.236,2.944
		l-2.495,0.188C31.088,46.428,30.902,45.345,30.906,44.322z M35.956,54.656c0.078,0.37,0.514,2.381,1.815,4.235
		c-0.836-0.558-1.828-1.568-2.635-3.411l-0.018-0.043l-0.027-0.04c-0.001,0-0.258-0.374-0.653-1.027
		c-0.666-1.094-1.699-2.97-2.476-5.051l1.987-1.516C34.26,49.64,34.855,51.942,35.956,54.656z M33.993,42.383
		c-0.482-0.489-1.278-1.299-1.833-1.862c0.584-0.671,1.403-1.236,2.537-1.663l0.472,0.151c0.47,0.217,0.936,0.423,1.399,0.619
		L33.993,42.383z M40.998,42.6c0.089-0.359,0.275-0.744,0.601-1.161c0.785,0.231,1.558,0.435,2.318,0.613
		c0.318,0.377,0.836,1.03,1.422,1.899L40.998,42.6z M48.939,54.395c0,0.326-0.013,0.654-0.037,0.986l-0.318,2.048
		c-0.238-0.548-0.529-1.123-0.855-1.565c-0.042-0.082-0.161-0.317-0.327-0.671c-0.534-1.127-1.509-3.46-1.784-5.468l1.91-1.767
		C48.335,49.86,48.944,52.067,48.939,54.395z M45.51,44.21c0.567,0.861,1.181,1.913,1.732,3.102l-1.969,0.162
		c-0.064-0.027-0.312-0.136-0.674-0.323c-0.633-0.327-1.586-0.89-2.354-1.601c-0.266-0.246-0.504-0.508-0.704-0.78L45.51,44.21z
		 M50.82,43.112c0-0.008,0-0.037,0-0.073c0.637,0.033,1.261,0.05,1.869,0.05c0.53,0,1.047-0.014,1.553-0.036
		c-0.038,0.723-0.091,1.851-0.105,2.106l-3.089-0.721C50.9,43.947,50.816,43.495,50.82,43.112z M57.263,52.457
		c0,0.013-0.001,0.029-0.002,0.049l-0.005,0.091l0.027,0.088c0.692,2.151,0.933,2.98,1.05,3.738
		c0.079,0.501,0.106,1.016,0.172,1.888c-1.327-1.686-1.987-2.387-2.416-2.728c-0.249-0.209-0.521-0.304-0.683-0.309
		c-0.002,0-0.004,0-0.006,0c-0.13-0.114-0.238-0.438-0.234-0.88c0-0.449,0.095-0.972,0.192-1.373
		c0.055-0.222,0.107-0.403,0.145-0.521l1.755-0.113C57.26,52.412,57.263,52.437,57.263,52.457z M55.748,48.464
		c0.387,0.792,0.774,1.633,1.059,2.364c0.124,0.308,0.224,0.599,0.3,0.855l-2.902-1.485c-0.6-0.841-1.32-1.918-1.941-3.031
		c-0.183-0.326-0.354-0.655-0.514-0.983l2.449-0.686C54.238,45.57,54.992,46.921,55.748,48.464z M52.689,42.106
		c-4.499-0.001-9.85-0.863-15.84-3.426c-0.932-4.092-1.285-7.583-1.285-10.52c0-4.63,0.874-7.887,1.735-9.98
		c0.431-1.047,0.861-1.803,1.177-2.293c0.159-0.245,0.29-0.423,0.378-0.538c0.045-0.058,0.079-0.099,0.101-0.125
		c0.009-0.011,0.014-0.017,0.019-0.022c0.017-0.015,0.083-0.066,0.249-0.147c0.595-0.293,2.415-0.878,6.999-0.875
		c3.685,0,9.159,0.373,17.23,1.544c7.519,1.091,11.911,2.152,14.382,3.063c1.235,0.454,1.987,0.874,2.396,1.209
		c0.415,0.342,0.458,0.549,0.458,0.64c0.005,0.097-0.067,0.226-0.194,0.343c-0.06,0.057-0.125,0.104-0.172,0.135
		c-0.023,0.015-0.042,0.025-0.054,0.033c-0.009,0.006-0.009,0.005-0.009,0.006l-0.577,0.296l10.116,5.169
		c-0.177-0.056-0.675-0.21-1.651-0.501c-0.976-0.292-2.657-0.812-4.17-1.132c-1.4-0.296-2.839-0.504-4.149-0.504
		c-0.469,0-0.92,0.026-1.347,0.085c-1.549,0.207-2.861,1.096-3.294,2.548c-0.091,0.3-0.137,0.587-0.137,0.859
		c-0.006,0.979,0.609,1.705,1.462,2.147c0.858,0.455,1.985,0.697,3.207,0.812c0.586,0.056,1.194,0.081,1.805,0.081
		c0.972,0,1.947-0.063,2.84-0.162c0.5-0.059,1.098-0.225,1.421-0.322c0.158,0.059,0.318,0.12,0.479,0.184
		c0.556,0.217,1.111,0.453,1.506,0.659c0.178,0.093,0.325,0.181,0.413,0.245c-0.155,0.841-0.741,4.029-0.786,4.255
		c0,0.004-0.001,0.007-0.002,0.01c-0.456-0.083-3.921-0.788-3.925-0.789l-0.082-0.017l-0.081,0.011
		c-0.004,0.001-3.222,0.432-6.766,1.053c-1.771,0.31-3.625,0.667-5.203,1.043c-1.585,0.381-2.869,0.758-3.614,1.191l-0.01,0.006
		l-0.01,0.006c0,0-0.077,0.051-0.246,0.15C66.272,39.236,60.891,42.107,52.689,42.106z M60.311,42.52c0-0.1,0.005-0.188,0.01-0.271
		c3.184-0.72,5.504-1.741,6.782-2.397c2.31,0.022,4.211,0.789,5.545,1.562c0.025,0.015,0.048,0.03,0.074,0.045
		c-3.469,1.134-5.794,2.494-7.281,3.995c-0.859,0.864-1.429,1.782-1.768,2.708C60.72,45.843,60.321,43.658,60.311,42.52z
		 M66.431,56.618c-0.057,0.002-0.248-0.326-0.297-0.317c-0.006-0.037-0.013-0.073-0.019-0.111c-0.035-0.202-0.074-0.413-0.117-0.597
		c-0.049-0.193-0.07-0.326-0.171-0.51c-0.534-0.85-0.988-1.79-1.274-2.748c-0.141-0.406-0.405-0.568-0.629-0.76
		c-0.022-0.017-0.043-0.033-0.064-0.049c0.029-0.066,0.061-0.139,0.093-0.215c0.138-0.344,0.292-0.7,0.312-1.078
		c0.042-1.365,0.543-2.739,1.874-4.09c1.317-1.331,3.468-2.623,6.781-3.717c0.148,0.03,0.434,0.09,0.82,0.189
		c1.544,0.383,4.593,1.422,6.318,3.343c-3.187,0.576-6.167,1.382-8.544,2.462c-1.544,0.703-2.838,1.522-3.77,2.5
		c-0.929,0.973-1.494,2.135-1.492,3.433c0,0.661,0.145,1.345,0.436,2.051C66.558,56.32,66.545,56.612,66.431,56.618z M132.46,64.047
		c-4.036,5.26-11.313,10.411-24.476,11.745c-2.033,0.205-3.971,0.3-5.816,0.3c-13.006-0.003-21.47-4.736-26.716-9.461
		c-2.623-2.362-4.435-4.726-5.589-6.494c-0.578-0.884-0.99-1.62-1.257-2.131c-0.133-0.256-0.231-0.455-0.294-0.59
		c-0.062-0.134-0.09-0.198-0.09-0.198l-0.016-0.037l-0.022-0.035c-0.667-1.048-0.948-1.972-0.948-2.792
		c0.002-1.011,0.418-1.906,1.221-2.756c2.404-2.563,8.349-4.288,14.62-5.122c0.314-0.06,0.393-0.2,0.513-0.309
		c0.09-0.1,0.176-0.212,0.254-0.323c0.104,0.087,0.218,0.173,0.344,0.25c0.151,0.085,0.307,0.175,0.56,0.182
		c0.019,0,0.039-0.001,0.058-0.002l0.017-0.001l0.019-0.002c0.383-0.057,0.805-0.084,1.228-0.131
		c0.247-0.029,0.415-0.127,0.592-0.231c0.278-0.174,0.554-0.403,0.749-0.578c0.1,0.056,0.217,0.119,0.344,0.183
		c0.387,0.184,0.818,0.39,1.292,0.402c0.02,0,0.04-0.001,0.06-0.001c0.789-0.042,1.565-0.066,2.325-0.085
		c0.26-0.014,0.434-0.105,0.609-0.201c0.217-0.126,0.431-0.285,0.604-0.427c0.01,0.011,0.02,0.022,0.03,0.033
		c0.104,0.113,0.221,0.23,0.354,0.334c0.139,0.097,0.273,0.214,0.565,0.23c0.57,0.001,1.188,0.119,1.843,0.122
		c0.236-0.001,0.477-0.017,0.723-0.066c0.405-0.111,0.59-0.34,0.815-0.542c0.006-0.006,0.012-0.012,0.019-0.018
		c0.05,0.042,0.104,0.086,0.159,0.132c0.149,0.12,0.312,0.243,0.482,0.348c0.175,0.102,0.338,0.199,0.588,0.23
		c0.768,0.085,0.553,0.09,1.237,0.214h0.004l0.016,0.002c0.049,0.007,0.104,0.012,0.165,0.012c0.435-0.01,0.833-0.183,1.185-0.338
		c0.112-0.052,0.217-0.103,0.306-0.148c0.123,0.103,0.276,0.233,0.437,0.369c0.36,0.305,0.762,0.65,0.869,0.75l0,0
		c0.152,0.144,0.268,0.261,0.324,0.337c0.017,0.022,0.029,0.04,0.036,0.053c0,0.002-0.003,0.004-0.005,0.007
		c-0.016,0.023-0.047,0.062-0.098,0.11c-2.059,2.019-2.68,3.961-2.676,5.484c0.004,1.892,0.914,3.082,0.948,3.129l0.084,0.11
		l0.132,0.05c4.521,1.717,8.962,2.374,13.104,2.374c11.286-0.006,20.335-4.853,22.963-6.414
		C137.111,54.303,136.141,59.251,132.46,64.047z"/>
	<g>
		<path d="M138.303,58.756c0-1.677,1.317-2.888,2.928-2.888c1.624,0,2.956,1.211,2.956,2.888c0,1.665-1.332,2.876-2.956,2.876
			C139.621,61.632,138.303,60.42,138.303,58.756z M143.574,58.77c0-1.452-0.999-2.343-2.343-2.343c-1.331,0-2.303,0.891-2.303,2.343
			c0,1.411,0.973,2.315,2.303,2.315C142.575,61.085,143.574,60.181,143.574,58.77z M142.562,60.247h-0.772l-0.439-0.745h-0.465
			v0.745h-0.733v-3.021h1.105c0.852,0,1.291,0.546,1.291,1.132c0,0.398-0.186,0.771-0.544,0.985L142.562,60.247z M141.271,58.929
			c0.333,0,0.56-0.159,0.56-0.545c0-0.333-0.227-0.532-0.56-0.532h-0.385v1.078H141.271z"/>
	</g>
</g>
</svg>
